<svg width="149" height="138" viewBox="0 0 149 138" fill="none" xmlns="http://www.w3.org/2000/svg">
<g clip-path="url(#paint0_diamond_30_160_clip_path)" data-figma-skip-parse="true"><g transform="matrix(-0.035791 0.0686804 -0.0737091 -0.0384115 74.5002 69.0919)"><rect x="0" y="0" width="1012.91" height="1012.03" fill="url(#paint0_diamond_30_160)" opacity="1" shape-rendering="crispEdges"/><rect x="0" y="0" width="1012.91" height="1012.03" transform="scale(1 -1)" fill="url(#paint0_diamond_30_160)" opacity="1" shape-rendering="crispEdges"/><rect x="0" y="0" width="1012.91" height="1012.03" transform="scale(-1 1)" fill="url(#paint0_diamond_30_160)" opacity="1" shape-rendering="crispEdges"/><rect x="0" y="0" width="1012.91" height="1012.03" transform="scale(-1)" fill="url(#paint0_diamond_30_160)" opacity="1" shape-rendering="crispEdges"/></g></g><path d="M110.291 0.411521L104.075 60.9166L148.209 107.503L84.7415 98.0164L38.7092 137.772L44.9252 77.2672L0.791079 30.6804L64.2588 40.1674L110.291 0.411521Z" data-figma-gradient-fill="{&#34;type&#34;:&#34;GRADIENT_DIAMOND&#34;,&#34;stops&#34;:[{&#34;color&#34;:{&#34;r&#34;:1.0,&#34;g&#34;:0.71764707565307617,&#34;b&#34;:0.11764705926179886,&#34;a&#34;:1.0},&#34;position&#34;:0.0},{&#34;color&#34;:{&#34;r&#34;:0.0,&#34;g&#34;:0.25098040699958801,&#34;b&#34;:0.64705884456634521,&#34;a&#34;:1.0},&#34;position&#34;:1.0}],&#34;stopsVar&#34;:[{&#34;color&#34;:{&#34;r&#34;:1.0,&#34;g&#34;:0.71764707565307617,&#34;b&#34;:0.11764705926179886,&#34;a&#34;:1.0},&#34;position&#34;:0.0},{&#34;color&#34;:{&#34;r&#34;:0.0,&#34;g&#34;:0.25098040699958801,&#34;b&#34;:0.64705884456634521,&#34;a&#34;:1.0},&#34;position&#34;:1.0}],&#34;transform&#34;:{&#34;m00&#34;:-71.581901550292969,&#34;m01&#34;:-147.41813659667969,&#34;m02&#34;:184.00016784667969,&#34;m10&#34;:137.36076354980469,&#34;m11&#34;:-76.823043823242188,&#34;m12&#34;:38.823040008544922},&#34;opacity&#34;:1.0,&#34;blendMode&#34;:&#34;NORMAL&#34;,&#34;visible&#34;:true}"/>
<defs>
<clipPath id="paint0_diamond_30_160_clip_path"><path d="M110.291 0.411521L104.075 60.9166L148.209 107.503L84.7415 98.0164L38.7092 137.772L44.9252 77.2672L0.791079 30.6804L64.2588 40.1674L110.291 0.411521Z"/></clipPath><linearGradient id="paint0_diamond_30_160" x1="0" y1="0" x2="500" y2="500" gradientUnits="userSpaceOnUse">
<stop stop-color="#FFB71E"/>
<stop offset="1" stop-color="#0040A5"/>
</linearGradient>
</defs>
</svg>
