<svg width="45" height="45" viewBox="0 0 45 45" fill="none" xmlns="http://www.w3.org/2000/svg">
<g clip-path="url(#paint0_diamond_103_287_clip_path)" data-figma-skip-parse="true"><g transform="matrix(0.00804118 0.0220298 -0.0224167 0.00818239 24.4579 22.2121)"><rect x="0" y="0" width="1042.64" height="1041.91" fill="url(#paint0_diamond_103_287)" opacity="1" shape-rendering="crispEdges"/><rect x="0" y="0" width="1042.64" height="1041.91" transform="scale(1 -1)" fill="url(#paint0_diamond_103_287)" opacity="1" shape-rendering="crispEdges"/><rect x="0" y="0" width="1042.64" height="1041.91" transform="scale(-1 1)" fill="url(#paint0_diamond_103_287)" opacity="1" shape-rendering="crispEdges"/><rect x="0" y="0" width="1042.64" height="1041.91" transform="scale(-1)" fill="url(#paint0_diamond_103_287)" opacity="1" shape-rendering="crispEdges"/></g></g><path d="M16.4167 0.182352L27.0059 13.5675L43.2925 7.62265L33.5503 21.84L44.1395 35.2251L27.5293 30.6268L17.7871 44.8441L17.2637 27.7848L0.653466 23.1865L16.9401 17.2416L16.4167 0.182352Z" data-figma-gradient-fill="{&#34;type&#34;:&#34;GRADIENT_DIAMOND&#34;,&#34;stops&#34;:[{&#34;color&#34;:{&#34;r&#34;:1.0,&#34;g&#34;:0.71764707565307617,&#34;b&#34;:0.11764705926179886,&#34;a&#34;:1.0},&#34;position&#34;:0.0},{&#34;color&#34;:{&#34;r&#34;:0.0,&#34;g&#34;:0.25098040699958801,&#34;b&#34;:0.64705884456634521,&#34;a&#34;:1.0},&#34;position&#34;:1.0}],&#34;stopsVar&#34;:[{&#34;color&#34;:{&#34;r&#34;:1.0,&#34;g&#34;:0.71764707565307617,&#34;b&#34;:0.11764705926179886,&#34;a&#34;:1.0},&#34;position&#34;:0.0},{&#34;color&#34;:{&#34;r&#34;:0.0,&#34;g&#34;:0.25098040699958801,&#34;b&#34;:0.64705884456634521,&#34;a&#34;:1.0},&#34;position&#34;:1.0}],&#34;transform&#34;:{&#34;m00&#34;:16.082349777221680,&#34;m01&#34;:-44.83337402343750,&#34;m02&#34;:38.83337402343750,&#34;m10&#34;:44.059597015380859,&#34;m11&#34;:16.364788055419922,&#34;m12&#34;:-8.0000429153442383},&#34;opacity&#34;:1.0,&#34;blendMode&#34;:&#34;NORMAL&#34;,&#34;visible&#34;:true}"/>
<defs>
<clipPath id="paint0_diamond_103_287_clip_path"><path d="M16.4167 0.182352L27.0059 13.5675L43.2925 7.62265L33.5503 21.84L44.1395 35.2251L27.5293 30.6268L17.7871 44.8441L17.2637 27.7848L0.653466 23.1865L16.9401 17.2416L16.4167 0.182352Z"/></clipPath><linearGradient id="paint0_diamond_103_287" x1="0" y1="0" x2="500" y2="500" gradientUnits="userSpaceOnUse">
<stop stop-color="#FFB71E"/>
<stop offset="1" stop-color="#0040A5"/>
</linearGradient>
</defs>
</svg>
